<svg xmlns="http://www.w3.org/2000/svg" width="38" height="41" viewBox="0 0 38 41">
    <path fill="#FFF" fill-rule="evenodd" d="M35.324 33.109c-.287 2.128-1.72 3.97-3.726 4.79-.982.408-2.046.53-3.11.408-1.023-.122-2.046-.45-3.11-1.064-1.474-.82-2.947-2.088-4.666-3.97 2.701-3.316 4.339-6.344 4.953-9.045.287-1.268.327-2.415.204-3.479a6.62 6.62 0 0 0-1.105-2.782c-1.269-1.843-3.397-2.907-5.77-2.907-2.373 0-4.502 1.106-5.77 2.907a6.636 6.636 0 0 0-1.106 2.782 8.5 8.5 0 0 0 .204 3.48c.615 2.7 2.293 5.77 4.953 9.086-1.678 1.882-3.193 3.15-4.666 3.969-1.064.614-2.087.941-3.11 1.064a6.534 6.534 0 0 1-3.111-.41 6.081 6.081 0 0 1-3.724-4.789 6.757 6.757 0 0 1 .369-3.192c.122-.408.327-.818.531-1.308.287-.656.614-1.35.942-2.047l.04-.082a448.223 448.223 0 0 1 9.005-18.375l.122-.246c.327-.615.655-1.27.982-1.883.328-.655.696-1.268 1.146-1.801.86-.982 2.006-1.514 3.274-1.514 1.27 0 2.416.532 3.274 1.514.45.533.82 1.146 1.146 1.801.327.614.655 1.268.982 1.883l.124.246a541.684 541.684 0 0 1 8.963 18.416v.04c.327.656.613 1.392.941 2.048.205.49.41.9.532 1.308.327 1.064.45 2.088.287 3.152zm-16.33-1.924c-2.21-2.782-3.643-5.402-4.134-7.612-.205-.94-.245-1.76-.123-2.497a3.965 3.965 0 0 1 .655-1.718c.778-1.104 2.087-1.8 3.602-1.8 1.513 0 2.864.654 3.601 1.8a3.98 3.98 0 0 1 .655 1.718c.123.737.082 1.597-.123 2.497-.49 2.169-1.923 4.79-4.133 7.612zm18.458-2.128c-.205-.491-.41-1.024-.614-1.472-.328-.737-.655-1.433-.941-2.088l-.042-.042A426.88 426.88 0 0 0 26.81 6.957l-.122-.245a84.568 84.568 0 0 1-.982-1.924c-.41-.736-.818-1.515-1.475-2.25C22.922.9 21.041 0 19.034 0c-2.046 0-3.888.9-5.238 2.455-.614.736-1.065 1.515-1.474 2.251-.327.655-.655 1.31-.982 1.924l-.122.245c-3.152 6.139-6.221 12.36-9.045 18.5l-.042.08c-.286.655-.613 1.351-.941 2.088-.204.45-.41.942-.614 1.473-.531 1.515-.695 2.947-.49 4.42a8.697 8.697 0 0 0 5.32 6.794 8.396 8.396 0 0 0 3.315.655c.327 0 .737-.042 1.064-.082 1.35-.163 2.742-.614 4.093-1.391 1.677-.94 3.274-2.291 5.075-4.257 1.8 1.966 3.438 3.316 5.075 4.257 1.35.777 2.742 1.228 4.093 1.391.327.04.736.082 1.064.082 1.145 0 2.29-.205 3.315-.655 2.864-1.145 4.87-3.766 5.32-6.794.327-1.432.163-2.864-.368-4.38z"/>
</svg>
